<svg width="306" height="93" viewBox="0 0 306 93" fill="none" xmlns="http://www.w3.org/2000/svg">
<path fill-rule="evenodd" clip-rule="evenodd" d="M15.7469 0.615353C9.51275 3.44185 2.64464 11.356 0.425711 21.1922C-2.32153 33.7419 9.0901 39.0557 10.0411 37.3598C11.0977 35.3247 8.03346 34.6463 7.29382 28.0889C6.55418 19.7225 10.2524 10.2254 14.7959 6.15528C15.6412 5.36386 15.6412 6.49446 15.6412 8.41648L15.4299 50.3616C15.4299 59.2934 15.1129 62.1199 14.4789 64.9464C13.8449 67.7728 12.894 69.6949 13.6336 70.4863C14.4789 71.2777 18.1771 69.3557 20.2904 66.19C22.7207 62.2329 23.9886 57.5975 23.8829 52.962C24.0943 46.9698 24.0943 37.4728 24.0943 32.159C24.0943 27.1844 24.1999 12.7127 23.9886 4.00714C23.8829 1.63289 18.3885 -0.628305 15.7469 0.615353ZM238.168 42.5605C238.062 46.2915 237.323 50.0225 235.738 53.4143C233.413 58.3889 228.658 59.9717 226.545 52.7359C225.488 48.8919 225.383 42.3344 226.228 36.9075C227.073 31.3676 229.292 27.1844 233.096 27.5236C236.9 27.9758 238.591 33.0635 238.168 42.5605ZM175.51 71.5038C175.404 79.1919 174.347 85.9755 171.917 88.0105C168.43 90.837 163.781 88.6889 164.732 83.0359C165.577 78.0613 169.593 72.9736 175.615 66.6423L175.51 71.5038ZM174.559 42.4475C174.453 46.1784 173.608 49.9094 172.128 53.4143C169.804 58.3889 164.943 59.9717 162.936 52.7359C161.562 47.8743 161.879 41.543 162.619 37.4728C163.464 32.2721 165.683 27.5236 169.487 27.5236C173.185 27.6366 175.087 31.9329 174.559 42.4475ZM138.211 42.4475C138.105 46.2915 137.365 50.0225 135.886 53.4143C133.456 58.3889 128.807 59.8587 126.693 52.7359C125.214 47.6482 125.742 40.5254 126.376 36.7945C127.327 31.1415 129.652 27.1844 133.244 27.5236C136.943 27.9758 138.739 33.0635 138.211 42.4475ZM304.63 47.6482C303.785 47.6482 303.257 48.6657 302.94 50.3616C301.777 56.2407 300.509 57.5975 298.924 57.5975C297.128 57.5975 295.543 54.6579 295.12 48.8919C294.803 44.2564 294.803 35.89 295.332 27.5236C295.437 25.8277 294.909 24.1318 290.683 22.4359C288.886 21.7575 286.139 20.6269 284.765 24.1318C282.124 30.8023 280.222 37.699 279.165 44.8217C279.165 45.0478 278.954 45.0478 278.848 44.5956C278.637 42.1083 278.109 37.4728 278.109 27.8628C278.109 25.9407 277.686 24.3579 275.784 23.1142C274.516 22.2098 270.712 20.74 269.233 22.5489C268.071 24.0187 266.697 27.9758 265.218 32.6113L263.21 38.9426V24.8101C263.21 23.3404 262.259 22.8881 261.942 22.7751C260.357 22.2098 258.772 21.8706 257.082 21.7575C255.814 21.7575 255.497 22.5489 255.497 23.6795C255.497 23.7926 255.285 37.1337 255.285 46.5176V47.7613C254.546 52.0575 252.221 57.8236 249.58 57.8236C247.044 57.8236 245.776 55.3363 245.776 44.2564C245.776 37.812 245.987 34.9855 246.093 30.237C246.198 27.5236 246.304 25.4885 246.304 25.0363C246.304 23.5665 243.979 22.8881 242.817 22.5489C241.761 22.3228 240.81 22.2098 240.07 22.2098C239.013 22.3228 238.274 23.0012 238.274 24.0187V25.6016C237.111 23.6795 235.315 22.0967 233.307 21.3053C229.398 20.0616 225.383 21.1922 222.319 25.7146C219.677 29.7848 218.092 34.5333 217.775 39.3948C217.352 43.6911 217.458 48.1004 218.198 51.8314C217.352 56.0146 215.556 57.7105 213.76 57.7105C211.118 57.7105 209.111 52.962 209.322 44.9348C209.533 39.621 210.484 35.89 211.541 30.4631C211.964 28.0889 211.647 26.9583 210.696 25.8277C209.85 24.8101 207.948 24.2448 205.307 24.9232C203.405 25.3754 200.658 25.9407 198.227 26.2799C198.227 26.2799 198.333 25.7146 198.544 24.584C199.178 18.7049 193.155 19.1572 191.254 21.0792C190.091 22.2098 189.352 23.5665 189.035 25.9407C188.612 29.6717 191.465 31.4807 191.465 31.4807C189.563 39.0557 186.499 46.0654 182.272 52.3967V50.3616C182.272 40.6385 182.378 32.9504 182.378 30.237C182.483 27.5236 182.589 25.4885 182.589 25.0363C182.589 24.0187 181.955 23.5665 180.793 23.1142C179.736 22.662 178.468 22.3228 177.2 22.2098C175.615 22.0967 174.559 23.0012 174.559 24.1318V25.6016C173.396 23.5665 171.6 22.0967 169.593 21.3053C165.683 20.0616 161.668 21.1922 158.604 25.7146C156.068 29.7848 154.483 34.5333 154.06 39.3948C153.637 43.9172 153.743 47.7613 154.271 51.1531C153.637 54.4318 151.841 57.8236 149.834 57.8236C147.298 57.8236 145.818 55.4493 145.818 44.2564C145.818 37.812 146.03 34.9855 146.135 30.237C146.241 27.5236 146.347 25.4885 146.347 25.0363C146.347 23.5665 144.022 22.8881 142.86 22.5489C141.697 22.2098 140.746 22.2098 140.007 22.2098C139.056 22.3228 138.316 23.2273 138.316 23.9057V25.4885C137.154 23.4534 135.358 21.9836 133.35 21.1922C129.441 19.9486 125.425 21.0792 122.361 25.6016C120.353 28.5411 118.663 31.9329 117.818 39.1687C117.606 41.0907 117.501 43.1258 117.501 45.0478C116.655 50.2486 113.168 56.3538 110.21 56.3538C108.519 56.3538 106.829 52.849 106.829 45.387C106.829 35.4378 107.463 21.1922 107.463 19.8355L111.9 19.7225C113.697 19.7225 115.387 19.7225 117.818 19.6094C119.086 19.4963 120.248 14.8609 118.98 14.2956C118.452 14.0695 114.331 13.8433 112.746 13.7303C111.372 13.7303 107.674 13.3911 107.674 13.3911C107.674 13.3911 107.991 3.89409 108.097 2.98961C108.202 2.08513 107.146 1.74595 106.512 1.40677C105.138 0.841472 103.764 0.389233 102.391 0.163114C100.383 -0.289126 99.4322 0.163113 99.2208 1.97207C98.9038 4.79856 98.7982 13.0519 98.7982 13.0519C97.3189 13.0519 92.1414 12.7127 90.6621 12.7127C89.2885 12.7127 87.7035 19.1572 89.7111 19.2702L98.3755 19.4963L98.2699 38.7165V40.0732C96.8962 47.9874 91.9301 52.2837 91.9301 52.2837C92.9867 47.0829 90.7678 43.1258 86.8582 39.8471C85.3789 38.6034 82.526 36.3422 79.2505 33.7419C79.2505 33.7419 81.1524 31.8198 82.7374 27.8628C83.8997 25.0363 84.0053 21.8706 81.0468 21.1922C76.2919 19.9486 72.3824 23.6795 71.2201 27.7497C70.2691 30.3501 70.7974 33.4027 72.5937 35.4378L73.0163 36.0031C71.9597 38.1512 70.4804 41.2038 69.2125 43.465C65.7256 49.7963 63.1897 54.884 61.1821 54.884C59.5971 54.884 59.5971 49.7963 59.5971 44.9348C59.5971 40.7516 59.9141 34.5333 60.1254 28.0889C60.2311 25.9407 59.1745 24.6971 57.4839 23.6795C56.1102 22.662 54.631 21.9836 53.046 21.6445C51.1441 21.6445 45.7552 21.9836 40.5777 37.812C39.9438 39.8471 38.6758 43.465 38.6758 43.465L38.7815 24.471C38.7815 24.0187 38.5701 23.5665 38.0418 23.3404C36.4569 22.4359 34.6606 21.8706 32.8643 21.7575C31.9134 21.7575 31.385 22.2098 31.385 23.2273L31.1737 53.0751C31.1737 55.3363 31.2794 57.9366 31.4907 59.1803C31.702 60.3109 32.019 61.2154 32.4417 61.7807C32.8643 62.346 33.287 62.7982 34.1323 62.9113C34.8719 63.1374 38.9928 63.5896 39.2041 62.0068C39.5211 59.9717 39.5211 57.8236 41.6344 49.7963C44.9099 37.3598 49.2421 31.1415 51.3554 28.9934C51.6724 28.5411 52.095 28.5411 52.095 29.2195L51.4611 44.5956C50.9327 60.1978 53.5743 63.0243 57.3782 63.0243C60.2311 63.0243 64.352 59.9717 68.7898 52.1706L76.0806 39.1687L80.4128 43.3519C83.8997 46.8568 85.062 50.1355 84.2166 53.3012C83.6883 55.6755 81.4694 58.2758 77.5599 55.7885C76.3976 55.1101 75.9749 54.5449 74.8126 53.7534C74.1786 53.3012 73.2277 53.1881 72.6994 53.6404C71.2201 54.771 70.3748 56.3538 69.9521 58.1628C69.5295 59.9717 71.2201 60.8762 72.9107 61.6676C74.39 62.346 77.6655 63.0243 79.6731 63.1374C87.7035 63.4766 94.0433 59.0672 98.4812 47.6482C99.3265 57.4844 102.708 63.0243 108.519 63.0243C112.429 63.0243 116.444 57.5975 118.135 52.2837C118.663 54.4318 119.403 56.3538 120.353 57.9366C124.897 65.6247 133.667 63.9288 138.105 57.3713C139.479 55.3363 139.69 54.6579 139.69 54.6579C140.007 59.1803 143.388 62.7982 147.615 63.0243C150.573 63.0243 153.637 61.5546 155.856 56.3538C156.068 56.9191 156.385 57.4844 156.702 57.9366C161.245 65.6247 170.015 63.9288 174.453 57.3713L174.981 56.5799L175.087 60.6501L171.072 64.6072C164.204 71.2777 159.026 76.3654 158.709 82.2445C158.181 89.8195 163.887 92.5329 168.219 92.9852C172.657 93.2113 176.778 90.837 179.208 86.8799C181.321 83.6012 182.695 76.3654 182.589 69.2426L182.378 58.9542C188.823 50.9269 193.895 41.656 197.065 31.5937C197.065 31.5937 199.601 31.5937 202.242 31.4807C203.088 31.3676 203.405 31.5937 203.193 32.2721C202.982 33.0635 199.812 46.2915 202.771 55.1102C204.778 61.1023 209.322 63.0243 211.964 63.0243C215.028 63.0243 218.092 60.537 219.677 56.693L220.311 57.9366C224.854 65.6247 233.624 63.9288 238.062 57.3713C239.013 55.9016 239.647 54.6579 239.647 54.6579C240.598 60.9893 245.247 63.0243 247.889 63.0243C250.636 63.0243 253.278 61.7807 255.391 56.4669C255.497 58.8411 255.602 60.7631 255.814 61.4415C255.919 61.7807 256.765 62.346 257.293 62.459C259.829 63.4766 262.365 63.0243 263.316 62.7982C263.95 62.6852 264.478 62.1199 264.584 60.6501C264.795 56.806 264.689 50.3616 265.746 45.5001C267.542 37.3598 269.233 34.3072 270.078 32.7243C270.501 31.8198 271.029 31.7068 271.029 32.6113C271.029 34.4202 271.135 39.9601 271.875 47.196C272.403 52.6228 273.143 55.7885 273.671 56.806C275.256 59.7456 277.158 59.8587 278.637 59.8587C279.588 59.8587 281.701 59.5195 281.49 57.7105C281.384 56.8061 281.596 51.2661 283.392 43.3519C284.554 38.1512 286.456 33.5157 287.196 31.7068C287.513 31.1415 287.618 31.5937 287.618 31.7068C287.407 35.2116 287.09 46.9699 288.464 53.3012C290.26 61.8937 295.649 62.9113 297.551 62.9113C301.566 62.9113 304.736 59.6325 305.898 51.1531C306.215 49.231 305.792 47.6482 304.63 47.6482Z" fill="#262626"/>
</svg>
